<?xml version="1.0" standalone="no"?>
<!DOCTYPE svg PUBLIC "-//W3C//DTD SVG 20010904//EN"
 "http://www.w3.org/TR/2001/REC-SVG-20010904/DTD/svg10.dtd">
<svg version="1.0" xmlns="http://www.w3.org/2000/svg"
 width="500.000000pt" height="500.000000pt" viewBox="0 0 500.000000 500.000000"
 preserveAspectRatio="xMidYMid meet">
<metadata>
Created by potrace 1.14, written by Peter Selinger 2001-2017
</metadata>
<g transform="translate(0.000000,500.000000) scale(0.100000,-0.100000)"
fill="#000000" stroke="none">
<path d="M2811 3604 c47 -51 63 -94 64 -164 0 -53 -5 -74 -27 -114 l-28 -48
40 -46 c23 -25 56 -77 75 -116 106 -217 88 -473 -47 -659 l-35 -47 -220 209
c-162 153 -218 212 -212 222 16 26 10 122 -9 154 -22 36 -277 279 -298 283 -9
2 -14 -5 -14 -18 0 -14 28 -52 71 -98 l70 -75 -25 -26 -26 -26 -73 73 c-46 46
-80 72 -95 72 -12 0 -22 -5 -22 -11 0 -7 34 -49 75 -94 l74 -82 -24 -23 -25
-23 -79 71 c-78 71 -111 87 -111 56 0 -9 59 -78 131 -155 161 -170 193 -187
304 -154 17 5 71 -48 299 -290 265 -281 300 -315 325 -315 23 0 94 76 150 160
67 101 112 209 136 329 21 104 16 313 -10 411 -21 79 -81 211 -126 277 -68
100 -217 237 -309 283 l-25 13 26 -29z"/>
<path d="M3072 2107 c-29 -31 -28 -72 3 -102 48 -49 125 -16 125 53 0 67 -82
98 -128 49z"/>
<path d="M1000 1480 l0 -120 30 0 c26 0 30 4 30 28 0 15 7 35 14 44 12 16 16
13 46 -27 30 -40 38 -45 72 -45 21 0 38 1 38 3 0 2 -22 32 -50 68 l-49 64 44
45 c25 25 45 49 45 53 0 4 -14 7 -32 7 -25 0 -43 -11 -80 -47 l-48 -47 0 47
c0 46 -1 47 -30 47 l-30 0 0 -120z"/>
<path d="M1310 1525 c0 -83 17 -137 48 -154 26 -14 107 -14 133 -1 34 19 49
64 49 150 l0 80 -35 0 -35 0 0 -83 c0 -85 -8 -107 -41 -107 -37 0 -49 28 -49
111 l0 79 -35 0 -35 0 0 -75z"/>
<path d="M1660 1480 l0 -120 90 0 c89 0 90 0 90 25 0 22 -4 24 -57 27 l-58 3
-3 93 -3 92 -29 0 -30 0 0 -120z"/>
<path d="M1940 1480 l0 -120 30 0 30 0 0 120 0 120 -30 0 -30 0 0 -120z"/>
<path d="M2120 1480 l0 -120 30 0 c29 0 29 1 32 62 l3 62 50 -61 c39 -48 56
-62 78 -62 l27 -1 0 120 0 120 -30 0 c-29 0 -29 -1 -32 -62 l-3 -63 -50 62
c-39 48 -56 62 -77 62 l-28 1 0 -120z"/>
<path d="M2470 1480 l0 -120 95 0 c95 0 95 0 95 25 0 24 -2 25 -65 25 -63 0
-65 1 -65 25 0 24 3 25 55 25 52 0 55 1 55 25 0 24 -3 25 -55 25 -48 0 -55 2
-55 20 0 18 7 20 60 20 57 0 60 1 60 25 0 25 -1 25 -90 25 l-90 0 0 -120z"/>
<path d="M2770 1480 l0 -120 29 0 c26 0 30 4 33 32 4 46 30 48 58 4 18 -30 27
-36 56 -36 40 0 41 2 13 40 l-22 28 22 28 c11 14 21 41 21 58 -1 62 -40 86
-139 86 l-71 0 0 -120z m133 49 c17 -28 1 -49 -38 -49 -33 0 -35 2 -35 36 0
34 1 35 31 32 18 -2 37 -10 42 -19z"/>
</g>
</svg>
