<svg version="1.0" xmlns="http://www.w3.org/2000/svg" width="666.667" height="666.667" viewBox="0 0 500 500"><path d="M281.1 139.6c4.7 5.1 6.3 9.4 6.4 16.4 0 5.3-.5 7.4-2.7 11.4l-2.8 4.8 4 4.6c2.3 2.5 5.6 7.7 7.5 11.6 10.6 21.7 8.8 47.3-4.7 65.9l-3.5 4.7-22-20.9c-16.2-15.3-21.8-21.2-21.2-22.2 1.6-2.6 1-12.2-.9-15.4-2.2-3.6-27.7-27.9-29.8-28.3-.9-.2-1.4.5-1.4 1.8 0 1.4 2.8 5.2 7.1 9.8l7 7.5-2.5 2.6-2.6 2.6-7.3-7.3c-4.6-4.6-8-7.2-9.5-7.2-1.2 0-2.2.5-2.2 1.1 0 .7 3.4 4.9 7.5 9.4l7.4 8.2-2.4 2.3-2.5 2.3-7.9-7.1c-7.8-7.1-11.1-8.7-11.1-5.6 0 .9 5.9 7.8 13.1 15.5 16.1 17 19.3 18.7 30.4 15.4 1.7-.5 7.1 4.8 29.9 29 26.5 28.1 30 31.5 32.5 31.5 2.3 0 9.4-7.6 15-16 6.7-10.1 11.2-20.9 13.6-32.9 2.1-10.4 1.6-31.3-1-41.1-2.1-7.9-8.1-21.1-12.6-27.7-6.8-10-21.7-23.7-30.9-28.3l-2.5-1.3 2.6 2.9zm26.1 149.7c-2.9 3.1-2.8 7.2.3 10.2 4.8 4.9 12.5 1.6 12.5-5.3 0-6.7-8.2-9.8-12.8-4.9zM100 352v12h3c2.6 0 3-.4 3-2.8 0-1.5.7-3.5 1.4-4.4 1.2-1.6 1.6-1.3 4.6 2.7 3 4 3.8 4.5 7.2 4.5 2.1 0 3.8-.1 3.8-.3 0-.2-2.2-3.2-5-6.8l-4.9-6.4 4.4-4.5c2.5-2.5 4.5-4.9 4.5-5.3 0-.4-1.4-.7-3.2-.7-2.5 0-4.3 1.1-8 4.7l-4.8 4.7v-4.7c0-4.6-.1-4.7-3-4.7h-3v12zm31-4.5c0 8.3 1.7 13.7 4.8 15.4 2.6 1.4 10.7 1.4 13.3.1 3.4-1.9 4.9-6.4 4.9-15v-8h-7v8.3c0 8.5-.8 10.7-4.1 10.7-3.7 0-4.9-2.8-4.9-11.1V340h-7v7.5zm35 4.5v12h9c8.9 0 9 0 9-2.5 0-2.2-.4-2.4-5.7-2.7l-5.8-.3-.3-9.3-.3-9.2H166v12zm28 0v12h6v-24h-6v12zm18 0v12h3c2.9 0 2.9-.1 3.2-6.2l.3-6.2 5 6.1c3.9 4.8 5.6 6.2 7.8 6.2l2.7.1v-24h-3c-2.9 0-2.9.1-3.2 6.2l-.3 6.3-5-6.2c-3.9-4.8-5.6-6.2-7.7-6.2l-2.8-.1v12zm35 0v12h9.5c9.5 0 9.5 0 9.5-2.5 0-2.4-.2-2.5-6.5-2.5s-6.5-.1-6.5-2.5.3-2.5 5.5-2.5 5.5-.1 5.5-2.5-.3-2.5-5.5-2.5c-4.8 0-5.5-.2-5.5-2s.7-2 6-2c5.7 0 6-.1 6-2.5 0-2.5-.1-2.5-9-2.5h-9v12zm30 0v12h2.9c2.6 0 3-.4 3.3-3.2.4-4.6 3-4.8 5.8-.4 1.8 3 2.7 3.6 5.6 3.6 4 0 4.1-.2 1.3-4l-2.2-2.8 2.2-2.8c1.1-1.4 2.1-4.1 2.1-5.8-.1-6.2-4-8.6-13.9-8.6H277v12zm13.3-4.9c1.7 2.8.1 4.9-3.8 4.9-3.3 0-3.5-.2-3.5-3.6s.1-3.5 3.1-3.2c1.8.2 3.7 1 4.2 1.9z"/></svg>